<svg xmlns="http://www.w3.org/2000/svg" xmlns:xlink="http://www.w3.org/1999/xlink" width="576.824" height="759.625" viewBox="-150 20 876.824 959.625"><defs><clipPath id="a"><rect width="429.851" height="103.317" fill="none"/></clipPath><clipPath id="b"><rect width="563.851" height="100.317" fill="none"/></clipPath></defs><g transform="translate(-41.488 0.003)" opacity="0.62"><g transform="translate(189.517 91.215)"><path d="M123.574,391.637l-19.2,43.863a20,20,0,0,0,2.5,20.32,21.222,21.222,0,0,0,33.477,0,20.049,20.049,0,0,0,2.488-20.32Zm0,0" transform="translate(-102.677 204.41)" fill="#00bbd6"/><path d="M302.645,391.637l-19.2,43.863a20.051,20.051,0,0,0,2.5,20.32,21.226,21.226,0,0,0,33.48,0,20.069,20.069,0,0,0,2.5-20.32Zm0,0" transform="translate(-47.451 204.41)" fill="#00bbd6"/><path d="M211.574,391.637l-19.2,43.863a20,20,0,0,0,2.5,20.32,21.222,21.222,0,0,0,33.477,0,20.049,20.049,0,0,0,2.488-20.32Zm0,0" transform="translate(-75.539 204.41)" fill="#00bbd6"/></g><g transform="translate(112.461 513.945)" clip-path="url(#a)"><g transform="translate(0 -438.318)"><path d="M168.5,297.828l-19.2,43.855a20.072,20.072,0,0,0,2.488,20.328,21.234,21.234,0,0,0,33.488,0,20.083,20.083,0,0,0,2.426-20.328Zm0,0" transform="translate(-12.483 155.448)" fill="#00bbd6"/><path d="M85.43,288l-19.2,43.855a20.054,20.054,0,0,0,2.488,20.328,21.226,21.226,0,0,0,33.48,0,20.054,20.054,0,0,0,2.492-20.328Zm0,0" transform="translate(-64.535 150.318)" fill="#00bbd6"/><path d="M347.574,297.828l-19.2,43.855a20.046,20.046,0,0,0,2.5,20.328,21.222,21.222,0,0,0,33.477,0,20.063,20.063,0,0,0,2.488-20.328Zm0,0" transform="translate(54.318 155.448)" fill="#00bbd6"/><path d="M264.5,288l-19.2,43.855a20.072,20.072,0,0,0,2.488,20.328,21.234,21.234,0,0,0,33.488,0,20.063,20.063,0,0,0,2.488-20.328Zm0,0" transform="translate(23.331 150.318)" fill="#00bbd6"/></g></g><g transform="translate(54.461 343.629)" clip-path="url(#b)"><g transform="translate(0 -438.318)"><path d="M168.5,297.828l-19.2,43.855a20.072,20.072,0,0,0,2.488,20.328,21.234,21.234,0,0,0,33.488,0,20.083,20.083,0,0,0,2.426-20.328Zm0,0" transform="translate(-12.483 155.448)" fill="#00bbd6"/><path d="M85.43,288l-19.2,43.855a20.054,20.054,0,0,0,2.488,20.328,21.226,21.226,0,0,0,33.48,0,20.054,20.054,0,0,0,2.492-20.328Zm0,0" transform="translate(-64.535 150.318)" fill="#00bbd6"/><path d="M347.574,297.828l-19.2,43.855a20.046,20.046,0,0,0,2.5,20.328,21.222,21.222,0,0,0,33.477,0,20.063,20.063,0,0,0,2.488-20.328Zm0,0" transform="translate(54.318 155.448)" fill="#00bbd6"/><path d="M264.5,288l-19.2,43.855a20.072,20.072,0,0,0,2.488,20.328,21.234,21.234,0,0,0,33.488,0,20.063,20.063,0,0,0,2.488-20.328Zm0,0" transform="translate(23.331 150.318)" fill="#00bbd6"/></g><g transform="translate(503 -438.318)"><path d="M168.5,297.828l-19.2,43.855a20.072,20.072,0,0,0,2.488,20.328,21.234,21.234,0,0,0,33.488,0,20.083,20.083,0,0,0,2.426-20.328Zm0,0" transform="translate(-12.483 155.448)" fill="#00bbd6"/><path d="M85.43,288l-19.2,43.855a20.054,20.054,0,0,0,2.488,20.328,21.226,21.226,0,0,0,33.48,0,20.054,20.054,0,0,0,2.492-20.328Zm0,0" transform="translate(-64.535 150.318)" fill="#00bbd6"/><path d="M347.574,297.828l-19.2,43.855a20.046,20.046,0,0,0,2.5,20.328,21.222,21.222,0,0,0,33.477,0,20.063,20.063,0,0,0,2.488-20.328Zm0,0" transform="translate(54.318 155.448)" fill="#00bbd6"/><path d="M264.5,288l-19.2,43.855a20.072,20.072,0,0,0,2.488,20.328,21.234,21.234,0,0,0,33.488,0,20.063,20.063,0,0,0,2.488-20.328Zm0,0" transform="translate(23.331 150.318)" fill="#00bbd6"/></g></g><path d="M466.219,287.608c58.708,0,106.3-40.239,106.3-89.877s-47.593-89.877-106.3-89.877a128.271,128.271,0,0,0-32.935,4.282,30.63,30.63,0,0,0,.453-4.282c-.229-20.042-19.625-36.135-43.33-35.951a50.9,50.9,0,0,0-13.725,2.022c-8.688-22.751-33.812-38.117-62.088-37.973a74.466,74.466,0,0,0-36.142,9.124C258.851,17.041,223.148-.111,184.63,0,125.379-.444,76.9,39.781,76.32,89.878a75.107,75.107,0,0,0,3.189,21.39C27.554,122.848-5.947,165.454,1.529,210.442s53.565,78.138,107.284,77.166Zm0,0" transform="translate(41)" fill="gray"/></g></svg>